<svg version="1.2" xmlns="http://www.w3.org/2000/svg" viewBox="0 0 865 865" width="500" height="500">
	<title>new_mj</title>
	<style>
		.s0 { 
			fill: #E2E8F0;
			stroke: #E2E8F0;
            stroke-width: -2;
            fill-opacity: 1;
		} 
	</style>
	<g id="Layer 1">
		<g id="&lt;Group&gt;">
			<!-- <path id="&lt;Path&gt;" fill-rule="evenodd" class="s0" d="m510.9 789.7v-4.9h4.8 4.8v4.9 4.8h-4.8-4.8z"/>
			<path id="&lt;Path&gt;" fill-rule="evenodd" class="s0" d="m528.2 792.8c-0.4-0.9-0.5-3-0.3-4.6 0.3-2.3 1.2-2.9 5-3.1l4.4-0.4v4.9c0 4.8-0.1 4.9-4.2 4.9-2.6 0-4.6-0.7-4.9-1.7z"/>
			<path id="&lt;Path&gt;" fill-rule="evenodd" class="s0" d="m545 792.8c-0.4-0.9-0.5-3-0.2-4.6 0.2-2.3 1.2-2.9 4.9-3.1l4.4-0.4v4.9c0 4.8-0.1 4.9-4.2 4.9-2.6 0-4.5-0.7-4.9-1.7z"/>
			<path id="&lt;Path&gt;" fill-rule="evenodd" class="s0" d="m562.5 789.7v-5l4.6 0.4c4.2 0.3 4.4 0.6 4.4 4.6 0 4-0.2 4.2-4.4 4.6l-4.6 0.4z"/>
			<path id="&lt;Path&gt;" fill-rule="evenodd" class="s0" d="m579.3 789.7v-4.9h4.8 4.8v4.9 4.8h-4.8-4.8z"/>
			<path id="&lt;Path&gt;" fill-rule="evenodd" class="s0" d="m596.2 789.7v-4.9h4.8 4.8v4.9 4.8h-4.8-4.8z"/>
			<path id="&lt;Path&gt;" fill-rule="evenodd" class="s0" d="m613.4 792.8c-0.3-0.9-0.4-3-0.2-4.6 0.2-2.3 1.2-2.9 4.9-3.1l4.5-0.4v4.9c0 4.8-0.2 4.9-4.2 4.9-2.7 0-4.6-0.7-5-1.7z"/>
			<path id="&lt;Path&gt;" fill-rule="evenodd" class="s0" d="m630.3 792.8c-0.4-0.9-0.5-3-0.3-4.6 0.3-2.3 1.2-2.9 4.9-3.1l4.5-0.4v4.9c0 4.8-0.1 4.9-4.2 4.9-2.7 0-4.6-0.7-4.9-1.7z"/>
			<path id="&lt;Path&gt;" fill-rule="evenodd" class="s0" d="m647.1 792.8c-0.4-0.9-0.5-3-0.3-4.6 0.3-2.3 1.2-2.9 4.9-3.1l4.5-0.4v4.9c0 4.8-0.1 4.9-4.2 4.9-2.7 0-4.6-0.7-4.9-1.7z"/>
			<path id="&lt;Path&gt;" fill-rule="evenodd" class="s0" d="m664.6 789.7v-5l4.6 0.4c4.2 0.3 4.4 0.6 4.4 4.6 0 4-0.2 4.2-4.4 4.6l-4.6 0.4z"/>
			<path id="&lt;Path&gt;" fill-rule="evenodd" class="s0" d="m681.4 789.7v-4.9h4.8 4.8v4.9 4.8h-4.8-4.8z"/>
			<path id="&lt;Path&gt;" fill-rule="evenodd" class="s0" d="m698.2 789.7v-4.9h4.8 4.8v4.9 4.8h-4.8-4.8z"/>
			<path id="&lt;Path&gt;" fill-rule="evenodd" class="s0" d="m715.5 792.8c-0.4-0.9-0.5-3-0.2-4.6 0.2-2.3 1.2-2.9 4.9-3.1l4.4-0.4v4.9c0 4.8-0.1 4.9-4.2 4.9-2.6 0-4.5-0.7-4.9-1.7z"/>
			<path id="&lt;Path&gt;" fill-rule="evenodd" class="s0" d="m733 789.7c0-4.7 0.2-4.9 4.2-4.9 4.1 0 4.2 0.2 4.2 4.9 0 4.7-0.1 4.8-4.2 4.8-4 0-4.2-0.1-4.2-4.8z"/>
			<path id="&lt;Path&gt;" fill-rule="evenodd" class="s0" d="m749.8 789.7c0-4.7 0.2-4.9 4.3-4.9 4 0 4.2 0.2 4.2 4.9 0 4.7-0.2 4.8-4.2 4.8-4.1 0-4.3-0.1-4.3-4.8z"/>
			<path id="&lt;Path&gt;" fill-rule="evenodd" class="s0" d="m766.7 789.7v-5l4.5 0.4c4.2 0.3 4.5 0.6 4.5 4.6 0 4-0.3 4.2-4.5 4.6l-4.5 0.4z"/>
			<path id="&lt;Path&gt;" fill-rule="evenodd" class="s0" d="m783.5 789.7v-4.9h4.8 4.8v4.9 4.8h-4.8-4.8z"/>
			<path id="&lt;Path&gt;" fill-rule="evenodd" class="s0" d="m800.3 789.7v-4.9h4.8 4.8v4.9 4.8h-4.8-4.8z"/>
			<path id="&lt;Path&gt;" fill-rule="evenodd" class="s0" d="m817.6 792.8c-0.4-0.9-0.5-3-0.3-4.6 0.3-2.3 1.2-2.9 5-3.1l4.4-0.4v4.9c0 4.8-0.1 4.9-4.2 4.9-2.6 0-4.6-0.7-4.9-1.7z"/>
			<path id="&lt;Path&gt;" fill-rule="evenodd" class="s0" d="m835.1 789.7v-5l4.6 0.4c4.2 0.3 4.4 0.6 4.4 4.6 0 4-0.2 4.2-4.4 4.6l-4.6 0.4z"/> -->
			<path id="&lt;Compound Path&gt;" fill-rule="evenodd" class="s0" d="m290 776.7c0-0.5 1.8-2.8 4-5.2 5.7-5.8 10-14.9 11.4-24.2 0.8-4.3 1-8 0.8-8.3-0.4-0.3-3.5 1.4-7.2 3.9-13.8 9.2-36.3 18.1-54.1 21.3-13.7 2.5-35.2 2.8-49.8 0.9-19.5-2.7-33-6.9-51-16-20.2-10.3-29.7-17-44.6-31.6-22.8-22.7-36.8-49.4-44.4-84.1-3.5-15.8-3.3-45 0.5-61.8 5.3-23.7 12.1-39.1 26.5-58.9 15-21.1 30-34.1 54.8-47.4l10.8-5.8 0.3-5.5c0.4-5.7-2.3-14.4-20.1-65.4-4.7-13.7-10.3-30.1-12.3-36.4-5.5-17.7-15.5-43.9-18-47.5-2.3-3.3-2.6-3.4-13.9-3.4-17.8 0-29.1-3.7-42.2-14-4.8-3.8-8.6-7.9-10.3-11.4-1.6-3.1-4.7-8.6-7-12.4-3.3-5.7-4.3-8.6-4.9-16.5-1.8-20.3 4.3-38 17.9-51.7 8.5-8.6 22.7-16.5 33.9-18.8 12.6-2.7 28.5-0.1 43.5 6.9 7.6 3.5 14.9 9.7 21.7 18.4 3.6 4.7 6.9 8.6 7.4 8.6 1.1 0 7.6-14.2 10.6-23.2 3.2-9.7 9.9-23.3 17.4-34.9 5.6-8.8 20.3-25.5 22.4-25.5 2.3 0 0.4 3.2-9.1 15-15.2 19.1-26.4 41.1-30.8 61.3-3.1 13.7-6.9 40.5-7.9 54-2 31.6 14.7 80.2 38.2 110.5 5.6 7 12.4 15.6 15.4 19 2.9 3.4 4.2 5.2 2.9 4.1-3.1-2.7-4.8-2.7-2.8-0.1 1 1.2-0.1 0.6-2.4-1.2-2.1-1.8-8.7-9.1-14.5-16-14.8-17.9-32.2-52-38.6-75.4-3-10.9-5-15.5-7.5-16.4-1.9-0.8-7.7 2-19.4 9.2-7.3 4.6-10 8.4-10.2 14.3 0 1.7 4.4 15.8 9.8 31.5 5.4 15.6 13.7 39.8 18.5 53.8 4.8 14 11.5 33.2 15.1 42.8 8.3 22.7 6.6 21.8 33.1 17.8 18.8-2.9 21.3-3.1 37.4-1.8 9.5 0.7 18.6 1.8 20.3 2.5 5.4 2.1 20.5 2.8 22.5 1.1 1.8-1.6 2.6-9 1.1-12.7-0.5-1-4.3-4.5-8.6-7.7-8.6-6-8.1-8.2 1.1-4.6 5.2 2.2 9.9 1.6 13.5-1.5 3.3-3 6-9 12.6-27.7 11.7-33.2 22.1-63.1 28.3-80.9 3.4-10 8.8-24.1 12-31.3 6.3-15 6.9-20.6 2.6-24-5.5-4.4-4.6-14.2 1.8-17.4 5.4-2.9 10.4-2.3 14.4 1.7 6.4 6.4 3.5 16.7-5.3 18.9-2.9 0.7-6.8 7.6-6.8 11.8 0 2.7-24.8 76.3-36.2 107.5-6.6 18.2-10.8 32.7-10.9 37.8-0.1 11.4 7.2 17 26.4 20.5 7 1.2 12.9 2.3 13.1 2.3 0.3 0 0.4 0.5 0.4 1.1 0 1.7-23 0.1-32.6-2.4-5-1.3-9.9-2.1-11-1.6-2.8 1-6 8.7-5.2 12.1 1.3 5.1 7.8 11.2 18.3 16.9 5.6 3.1 12.8 7.9 15.9 10.6 3.2 2.8 9.7 8.3 14.3 12.2 14.8 12.2 29.6 34.6 37 55.9 1.8 5.4 4 10.8 4.8 12.2 4.6 7.5 10 44 7.7 51.3-0.6 1.7-1.2 7.1-1.6 11.9l-0.4 8.6 4.9-1.8c2.8-1 9-2 13.9-2.4 23.2-1.7 41.7 10.4 48.2 31.5 3.6 11.9 2.9 30-1.6 39.9-4.4 9.5-11.8 17.2-21.2 21.9-7.5 3.6-8.6 3.9-21.2 3.9-10.9 0-14.4-0.5-20-2.8-9.3-3.8-18.2-12-22.4-20.9l-3.3-7-9.8 11.2c-8.8 10.3-9.7 11.7-10.4 17.8-3 24.1-11.9 38.8-29.4 48.2-7.3 3.9-8.5 4.4-8.5 2.9zm-40.3-20.9c18.3-4.5 41.8-14.3 52-21.7l5.1-3.8v-66.6c0-49.1-0.4-67.4-1.5-69.7-1.4-3.2-8.7-7.9-12.2-7.9-1 0-2.2-0.5-2.5-1.2-0.5-0.9 8.8-1.2 27.1-1.2 15.4 0 27.5 0.5 26.9 0.9-0.7 0.6-3.5 1.7-6.3 2.6-2.7 0.7-6.1 2.8-7.4 4.6-2.5 3-2.5 4.5-2.5 61.2 0 32.5 0.5 57.8 1.1 57.4 0.4-0.3 4.4-5.4 8.6-11.2l7.7-10.7 0.7-12.2c0.5-10.2 1.2-13.5 4.3-20 2.1-4.3 6.2-10.3 9.2-13.6 7-7.4 7.4-9.9 7-41.5-0.1-19.1-0.7-27.2-2.1-32.9-1.1-4.3-2.7-7.7-3.4-7.7-0.7 0-2.6-3.6-4.1-8.1-5-14.3-11.6-24.2-34.4-51.1-7.1-8.4-25.8-22.6-37.2-28-12.1-5.8-12.1-5.9-15.7-3.8-4.9 2.9-11.8 16.8-15 29.8-0.7 3.4-2.6 9.4-4.2 13.4-4.3 11-11.7 32.2-21.6 61.8-7.1 21.3-8.7 28-8.6 33.1 0.2 5.8-0.1 6.8-3.1 9.4-4.3 3.7-7.1 3.7-11 0.3-2.9-2.6-3.1-3.8-3.6-14.3-0.5-12.3-1.7-16.8-5.3-20.8-1.3-1.3-3-4.7-3.7-7.5-0.8-2.8-3.1-8.8-5.1-13.3-4.3-9.9-13.4-35.8-16.7-47.3-1.2-4.5-3-10.1-4-12.7-14.9-39.6-13.6-38.2-29.1-30.2-36.7 19.3-66.6 56.7-75.5 94.7-6.6 28.1-6.6 49.4 0 74.9 7.5 28.7 19.7 50.1 42.4 73.9 15 15.7 40.3 30.7 63.9 37.7 22.3 6.5 24.7 6.9 51.6 6.2 13-0.4 21.5-1.2 28.2-2.9zm154.4-33.5c4.6-2.3 10-9.9 12.8-17.8 1.7-5 2.1-9.9 2.1-23.3-0.1-14.5-0.4-18-2.7-24.7-6.6-18.7-18.9-27-31.8-21.4-10.4 4.3-16.6 17.6-17.3 37.6-1.6 36.6 16.2 60.5 36.9 49.6zm-188-128c2.9-9.4 29.1-83.9 32.1-91.1 6.2-14.9 12.2-35.3 11.3-38.7-1.1-4.4-6.3-6.7-19.9-8.9-14.4-2.3-47.7-2.7-55.3-0.5-20.4 5.7-21.6 6.2-21.6 8.8 0 1.4 4.2 15.2 9.5 30.6 12.9 38.6 17.5 52.5 22.3 68.1 2.3 7.5 5.8 17 7.8 21.2 1.9 4.2 3.6 8.4 3.6 9.1 0 1.4 4.4 3.9 7.4 4 1.1 0.1 2.4-1.1 2.8-2.6zm-129.6-298.6c1.4-0.3 3.4-2.1 4.5-4 1.9-3.2 1.8-4-4.1-22.3-4-12.6-7.1-20.2-9.5-23.2-4.1-5.1-4.4-8-1.7-10.8 4.5-4.6 12 0.2 10.7 6.7-1.2 5 8.3 33.9 12.6 38.6 1.7 1.8 5.6 4 8.3 4.9 4.7 1.2 5.5 1 10.3-1.7 6.4-3.9 13.9-13 19-23.7 3.7-7.6 3.9-8.5 3.9-23.1 0-14.9-0.2-15.4-4.1-23.6-10.3-21.3-28.6-32.3-53-32.4-17.9 0-30.8 5.8-43.9 19.9-10.9 11.7-17 27.8-15.6 41.8 1.6 16.7 7.7 29.7 17.7 38.5 11.8 10.2 34.1 17.3 44.9 14.4z"/>
			<path id="&lt;Path&gt;" fill-rule="evenodd" class="s0" d="m473.7 726.3c-2.3-0.7-6.6-3.9-9.8-6.9-8.4-8.1-9.4-13.1-9.4-43 0-14-0.6-26.1-1.2-28.1-1.2-3.5-2.8-4.6-9.6-7.3-2.7-1.1-2.3-1.2 3.2-1.9 3.5-0.4 10.2-2.2 15-3.9 4.8-1.8 9.6-3.5 10.6-3.8 1.5-0.5 1.8 4.5 1.8 39.8 0 43.5 0.1 44.1 6.6 50 3.9 3.7 11.5 3.3 17.6-0.8 5.8-3.9 11.7-14.7 13.6-25.1 1.6-8.3 1.6-43.8 0.1-47.8-0.8-2.1-3.1-3.7-7.5-5.5-5.7-2.1-5.9-2.5-2.8-2.6 4.4-0.1 18.7-3.7 25.1-6.5 2.5-1.1 4.9-2 5.4-2 0.4 0 0.6 17.8 0.4 39.7-0.5 45.5-0.2 47.8 7.3 51.8l4.4 2.5 4.6-2.5c6.7-3.6 7.3-6.6 7.3-40 0-33.7-0.5-36.3-7.6-39.8l-4.8-2.3 7.2-1.6c3.9-0.7 10.8-2.9 15.4-4.6 4.5-1.7 8.5-3.2 9-3.2 0.4 0 0.6 5.4 0.5 11.8l-0.4 11.9 2.6-5.1c3.1-6.4 9.2-12.7 14.8-15.4 5-2.4 19.4-5.3 20.5-4.1 0.3 0.3 0.1 3.2-0.8 6.4-1.3 5.3-1 15.6 0.8 26 0.6 3.8 0.4 4-0.9 2-0.8-1.2-4.1-6-7.2-10.4-6.9-10.2-12.5-13.4-18.4-10.6-8.2 4-11.4 17.2-11.4 48.9 0 22 0 22.1 3.2 25.8 1.9 2.3 5.2 4.3 8.6 5.4 5.2 1.5 2.5 1.7-31.6 2.3-20.4 0.4-38.6 1.1-40.3 1.5l-3.1 0.8 0.4-12 0.5-11.8-3.1 6.3c-7.1 14.1-21.7 20.4-36.6 15.7z"/>
			<path id="&lt;Compound Path&gt;" fill-rule="evenodd" class="s0" d="m729.1 726.2c-9.5-3.5-13.8-10.9-12.3-21 1.7-11.5 15.4-21.1 42.9-29.7l13-4v-9.2c0-16.9-6-28.9-14.6-28.9-9.2 0-18.6 9.8-28.5 30.1-2.2 4.2-4.1 7.4-4.4 7.2-0.2-0.3 0-4.1 0.6-8.5 1.1-7.4 0.5-13.8-1.8-22.3-0.7-2.3 0.4-2.8 12.3-6.1 28.1-7.6 44.6-2.9 53.5 15.2 2.6 5.2 2.7 7.5 3.3 36.7l0.6 31.3 3 2.9c1.7 1.7 4.3 3.4 6 3.7 4.3 1.1 10.9-3.7 12.2-8.8 0.6-2.2 0.9-30.7 0.8-63.4l-0.4-59.5-3.4-2.9c-1.8-1.6-4.4-2.9-5.6-2.9-5.2 0-3.1-2.2 2.9-2.9 7.4-1 15.7-3.4 20.9-6.1 2-1.1 4.2-1.9 4.6-1.9 0.5 0 0.9 31.9 0.6 70.8l-0.2 70.7 2.9 2.8c1.5 1.6 4.7 3.4 6.9 4.3 3.3 1.1-2.6 1.4-30.8 2-19.1 0.5-36.5 1.1-38.4 1.6l-3.8 0.7 0.5-12.6 0.5-12.5-2.4 4.6c-7.1 13.6-15.1 19.2-28.3 19.9-5.4 0.3-10.2-0.2-13.1-1.3zm28.7-6.2c9.3-7.1 14.9-20.6 14.9-35.9v-9.8l-3.3 0.9c-7.4 1.8-21.4 9.3-25.6 13.7-6.7 7.2-9.1 18.7-5.5 27.3 3.5 8.7 11.3 10.1 19.5 3.8z"/>
			<path id="&lt;Path&gt;" fill-rule="evenodd" class="s0" d="m617.3 723.2c8.9-4.2 8.9-3.9 8.9-40.5 0-37.2-0.3-38.3-8.7-41.1l-5.1-1.8 6.2-0.7c3.5-0.4 10.2-2.2 15-3.9 4.8-1.8 9.7-3.5 10.8-3.9 1.9-0.6 2.1 0.5 1.5 13.7l-0.6 14.4 3.6-7.4c4-8.2 11.1-16.2 16.9-19.2 14.3-7.4 30.7 0.3 37.2 17.5 1.1 2.9 1.8 14.2 2.3 36 0.8 35.3 0.5 34.1 9.1 37.2 4.5 1.7 3.3 1.8-19.2 1.8-22.2 0-23.6-0.1-19.2-1.7 10.1-3.6 10.8-7 9.8-45.9-0.7-29.8-1.5-35-6.6-40.1-5.7-5.9-16.9-2.2-23.1 7.5-8.2 13.2-11.2 28.5-10.5 54.5 0.4 19 0.7 19.9 8.8 23.6l4.8 2.3h-23.4-23.4z"/>
			<path id="&lt;Path&gt;" fill-rule="evenodd" class="s0" d="m512 571.9c-5.2-14-48.1-122-48.8-122.7-0.2-0.3-0.2 23.5-0.1 52.7 0.4 48.3 0.6 53.7 2.5 57.2 2.5 4.8 6.6 7.6 13.8 9.5 5.1 1.4 3.5 1.6-15.9 1.5-13.2 0-20.3-0.4-18.4-1 5.5-1.7 11.3-5.8 13.1-9.3 2.6-5.2 3.1-113.4 0.6-119.6-1.8-4.4-8.1-9.2-11.8-9.2-1.2 0-2.1-0.6-2.1-1.2 0-0.9 5.8-1.2 16.9-1l17 0.4 3.3 8.4c10.4 26.9 43.4 109.2 44.2 110 0.4 0.4 3.8-6.3 7.4-15.2 3.5-8.8 12.3-29.9 19.2-46.9 7.1-17 15.2-36.7 18-43.9l5.2-13h13.7c13.1 0 17.5 1.3 9.8 2.9-2 0.3-5.2 2.3-7.2 4.2l-3.5 3.5v60.2c0 51.8 0.3 60.5 1.8 62.9 1.6 2.5 6.4 5.3 12.7 7.3 0.9 0.3-10.6 0.5-25.9 0.6-25.8 0-27.2-0.1-21.9-1.8 6.2-1.9 10.2-6.1 11.1-11.9 0.4-2 0.5-24.5 0.4-49.8-0.4-52.9 1.1-50.9-12.4-17.6-24.2 59.9-29.3 71.4-34.9 78.7-3.1 4.1-5.9 7.4-6.1 7.4-0.3 0-1-1.5-1.7-3.3z"/>
			<path id="&lt;Compound Path&gt;" fill-rule="evenodd" class="s0" d="m616.1 571.1c-9.3-3.5-13.8-11.9-11.7-21.6 2.8-12.2 14.2-19.9 44-29.3l12-3.9v-9.1c-0.1-11.6-2.4-19.7-7.2-24.8-9.4-10-21.4-2.2-33.6 21.8-3.4 6.4-6.4 11.6-6.8 11.6-0.3 0-0.1-3.9 0.5-8.7 1-8 0.3-16.9-2.1-22.9-0.6-1.6 1.3-2.4 9.8-4.7 16.7-4.5 25.1-5.5 33-3.8q15.3 3.3 22 16.4l3.6 7.2 0.6 31.3c0.6 30.4 0.7 31.3 3.4 33.9 1.4 1.6 4.4 3.4 6.6 4.1 3.3 1.3 2.4 1.5-9.4 2.2-7.2 0.5-15 1.1-17.2 1.6l-4 0.7 0.7-13.8 0.7-13.8-2.8 6.2c-3.7 7.9-9.6 14.5-15.7 17.7-6.4 3.2-19.8 4.1-26.4 1.7zm24.8-3.7c11.3-4.8 20.1-23 20.1-41.3 0-5-0.5-6.7-1.7-6.7-3 0-21.1 8.3-25.4 11.6-7.1 5.4-9.8 13.4-9.2 27 0.3 4.7 5.9 11.1 9.9 11.1 1.3 0 4.2-0.7 6.3-1.7z"/>
			<path id="&lt;Path&gt;" fill-rule="evenodd" class="s0" d="m715 568.9c-3.8-2-6.2-4.4-8.4-8.3-3-5.4-3-5.4-3.3-43.2l-0.4-37.9h-6.6c-3.5 0-6.5-0.4-6.5-0.9 0.1-0.6 2.8-2.2 5.9-3.8 9.5-4.4 16.3-11.3 21.4-21.8l4.5-9.2 0.4 16 0.4 16h11.8c9.9 0 12 0.4 12 1.8 0 1.5-2.1 1.9-12.1 1.9h-12l0.4 38.5c0.3 33.8 0.6 38.9 2.4 42.3 3.8 6.9 9.9 6.8 17.7-0.4 2.7-2.4 4.8-4 4.8-3.4 0 2.7-6 9.2-10.9 12-7.1 3.9-14.3 4-21.5 0.4z"/>
			<path id="&lt;Path&gt;" fill-rule="evenodd" class="s0" d="m746.8 568.5c9.5-3.4 9.1 0.8 9.1-69.2 0-60.9 0-62.3-2.4-64.7-1.4-1.3-4.1-2.8-6.1-3.3-5.5-1-4.3-2.4 3.3-3.4 5.9-0.7 14.5-3.3 23.6-7.2 2.2-1 2.3 0.1 1.7 40.9-0.3 23.2-0.5 42.1-0.3 42.1 0.1 0 2-3.5 4-7.8 6.1-12.4 17.7-21.3 27.8-21.3 9.5 0 18.6 6.4 23.6 16.7l3.4 6.9 0.4 30.3c0.1 17.6 0.8 31.7 1.5 33.6 1.2 2.8 4.5 5.1 10.7 7.4 1 0.4-8.8 0.6-21.6 0.6-19.3 0-22.7-0.2-19.6-1.3 2.2-0.9 5.2-2.7 6.6-4.3 2.8-2.6 2.8-3 2.8-36.3 0-29.7-0.2-34.3-2.2-39.4-1.2-3.2-3.3-6.6-4.8-7.5-8.7-6.2-22.2 3.8-28.6 21.4-2.4 6.8-2.7 10.3-3.2 33.1-0.5 29-0.4 29.5 8.8 32.7 4.4 1.6 3 1.7-19.2 1.7-22.3 0-23.7-0.1-19.3-1.7z"/>
			<path id="&lt;Compound Path&gt;" fill-rule="evenodd" class="s0" d="m332 449.5c-9.7-1.6-3.4-3.7 11.4-4 9.1 0 28.3-2.5 42.6-5.6 17.8-3.6 45.2-17.5 65.5-33 10.2-7.9 30.6-29.1 30.6-31.9 0-1.2 1.2-2.7 3-3.4 1.5-0.6 3.9-3.3 5.4-6.1 3.5-6.7 14.5-54.6 12.7-55.1-4.6-1.3-5.5-1.9-5.5-3.6 0-1.5 1.8-1.9 9.5-1.9 11.1 0 10.7 0.7 11.5-14 0.4-5.2 1.1-13.7 1.8-18.7 0.7-6.3 0.7-12.1-0.2-19.1-1.2-9.2-1-12.7 0.9-10.8 0.5 0.5 1.3 7.7 2.1 16.2 0.9 12.5 0.8 18.5-0.6 30.1-1 8-1.6 14.9-1.4 15.5 0.3 0.5 3.3 0.8 6.5 0.8 7.5 0 13.1 2.3 16.6 6.8 2.3 2.9 2.6 4.6 2.3 9.8l-0.5 6.2 3-1.2c1.7-0.7 11.9-1.6 22.7-1.8 19-0.6 19.4-0.6 19.4 1.8 0 1.8-1 2.7-3.7 3.3l-3.7 0.8 0.8 6.3c0.5 3.4 1.6 11.2 2.3 17.1l1.5 10.9 3.2-6.3c1.8-3.5 6.3-11 9.9-16.7 3.6-5.6 6.6-10.5 6.6-10.9 0-0.4-1-0.6-2.2-0.6-2.9 0-5-2.3-4.2-4.4 0.5-1.3 3.4-1.7 11.4-1.7 9.4 0 10.7 0.3 10.3 2.1-0.2 1.1-2.1 2.5-4.4 3.4-3.5 1.1-5.7 4.1-16.3 21.4-15.5 25.5-17.1 27.7-19.7 27.7-2 0-2.7-2.7-5.4-17.2-5.8-31.4-5.4-30.1-8.8-31.4-1.7-0.6-3.4-0.9-3.6-0.6-0.4 0.3-2.4 8.3-4.7 17.9-2.2 9.6-4.3 18.5-4.7 20.1-0.5 2.1 0 2.9 2.4 3.9 3.3 1.2 4 3.4 1.6 4.2-0.9 0.3-7.7 0.8-15.1 1.3l-13.5 0.7-3.4-3.4c-2.7-2.7-3.8-5.6-5.5-14.3-3-16.1-2.5-15.2-8.9-15.2h-5.6l-2.6 12.3c-1.6 6.8-2.4 12.8-2.1 13.3 0.4 0.6 1.7 1.1 3 1.1 1.5 0 2.3 0.8 2.3 2.4 0 2.2-0.8 2.4-9.9 2.4l-9.9 0.2-6.5 7.5c-14.2 16.6-38.1 36.6-45.5 37.9-4.6 0.9-12.3 5-12.3 6.6 0 1.7-20.3 10.9-30.9 14-16.7 4.9-50.8 8.7-61.5 6.9zm212.5-80.6c1.1-2.8 8.4-34 8.4-36.2 0-0.6-1.5-1.1-3.6-1.1-1.9 0-3.6-0.6-3.6-1.2 0-0.7-1.7 0.6-3.8 3-2.1 2.4-5.8 5.5-8.2 6.7l-4.6 2.3 2.9 12.2c1.6 6.8 3.5 13.4 4.1 14.6 1.8 3.4 7 3.1 8.4-0.3zm-19.2-31.5c14.9-7.6 14.5-25.5-0.4-27.2l-5.2-0.6-2.7 8.8c-1.5 5-3.3 10.1-4.2 11.4-0.9 1.3-2 4.2-2.4 6.4l-0.9 3.9h5.2c3.2 0 7.5-1.1 10.6-2.7z"/>
			<path id="&lt;Path&gt;" fill-rule="evenodd" class="s0" d="m234.7 419.7c-9.1-5.2-23.3-16.2-26.2-20.5-2.6-3.6-0.2-2.5 8.7 4.4 4.7 3.5 12.4 9 16.9 11.9 8.2 5.2 12.9 9.4 10.6 9.4-0.5 0-5.1-2.3-10-5.2z"/>
			<path id="&lt;Compound Path&gt;" fill-rule="evenodd" class="s0" d="m444.9 375.6c-9.9-5.2-11.9-19.3-5.1-33.5 5.4-11 14.4-17.5 25.9-18.5 11.2-1.1 17.5 6.2 15.5 18.3-1 7.8-1.4 7.9-17.9 7.9h-14.8l-0.8 3.1c-1.4 5.5 0.3 14.2 3.2 16.5 3.3 2.8 10.4 2.8 16.8 0.3 7.4-3.1 8.9-0.5 2.4 3.8-6.6 4.5-18.8 5.5-25.2 2.1zm26.6-37.1c1.8-8.8-3.6-12-12-6.9-3.5 2.2-8.6 8.9-8.6 11.3 0 0.5 4.4 0.8 9.8 0.6l9.9-0.4z"/>
			<path id="&lt;Compound Path&gt;" fill-rule="evenodd" class="s0" d="m617.6 374.9c-6.2-4.2-8.5-9.7-7.9-18.8 1.1-14.7 10.5-27.4 23-31.2 7.8-2.4 11.2-2.3 16.5 0.4 2.7 1.5 5.2 1.9 6.6 1.3 1.4-0.4 5.6-1.2 9.4-1.7l7-0.9-0.8 4.6-0.7 4.6 3.3-3c6.3-6.1 14-8.5 18.1-6 2.2 1.3 1 7.8-2.3 13.2-3.1 5.2-5.3 4.5-5.8-1.9-0.4-5.7-0.3-5.7-4.8-3.4-7.4 3.9-9.8 8.2-13.4 23.3-1.9 8-3.2 14.6-3 14.9 0.2 0.2 2.3 0.7 4.4 1.2 2.3 0.5 4 1.6 4 2.5 0 1.5-2.6 2-14 2.2-9.4 0.2-14.2-0.1-14.2-1 0-0.7-1.5-0.5-3.6 0.6-5.5 2.9-16.8 2.5-21.8-0.9zm23.6-5.1c6.1-2.3 6.9-2.3 6.1 0-1 2.5 2.5 2.3 3.8-0.3 1.1-2.1 8.7-34.1 8.7-36.6 0-0.7-1.1-1.3-2.4-1.3-2.1 0-2.4 0.9-2.4 5.9 0 3.3-0.5 7.4-1.2 9.1l-1.2 3.2h-15.5-15.5l-0.7 5.3c-1 6.1 1.3 13 4.9 15.2 3 1.8 9.6 1.5 15.4-0.5zm3.7-29c0.4-1.6 0.5-4.6 0.2-6.9-0.3-3.7-0.7-4.1-4.8-4.5-3.4-0.2-5.1 0.4-8.7 3.5-2.4 2.2-5.2 5.5-6.2 7.3l-1.8 3.5h10.4c9.7 0 10.2-0.1 10.9-2.9z"/>
			<path id="&lt;Compound Path&gt;" fill-rule="evenodd" class="s0" d="m744.2 376.7c-6.8-0.1-12.4-0.7-12.4-1.2 0-2 3-3.9 5.7-3.9 1.8 0 3.2-1 3.9-2.7 1.1-2.8 6-23.2 6-25.3 0-0.6-7-1.1-16-1.1h-16l-3.3 13.6c-1.6 7.4-2.7 13.9-2.2 14.4 0.6 0.5 2 1.1 3.3 1.3 1.3 0.3 2.4 1.3 2.4 2.2 0 1.5-2.5 2-13.5 2.2-12.5 0.2-13.6 0.1-13.2-1.8 0.2-1.2 1.9-2.4 4.3-2.9 2.1-0.5 4.1-1 4.3-1.2 0.5-0.6 13.1-55.8 13.2-58 0.1-0.9-1.2-2-2.9-2.5-1.7-0.4-3-1.5-3-2.4 0-1.5 2.7-2 13.6-2.2 11-0.3 13.4 0 13.4 1.4 0 1-1.9 2.2-4.4 2.8-4.2 1-4.4 1.4-6.5 9.2-1.1 4.4-2.4 10-2.8 12.4l-0.8 4.2h16.1 16l2.6-11.1c3.3-13.8 3.3-14.1 0-14.5-1.6-0.3-2.9-1.4-3.1-2.5-0.4-1.9 0.9-2.2 14-2.2 8.3 0 14.7-0.4 15.2-1.2 0.9-1.7 7.4-1.5 8.5 0.2 0.5 0.9 1.1 0.8 1.8-0.3 1.4-2.4 15.4-4.7 18.7-3.1 1.8 0.8 4.7 0.7 9-0.2 3.4-0.6 7-0.8 8-0.6 2 0.9 2 1-7 39.8-3.9 16.6-6.7 30.6-6.5 31.1 0.4 0.5 1.7 1 2.9 1 2.6 0 4.3 2.2 2.9 3.6-1.1 1.1-50.2 2.1-72.2 1.5zm18.4-6.1c1.2-0.8 8.9-32.6 8.9-36.9 0-1.4-1-2.1-2.8-2.1-3.4 0-4.4-0.8-3.7-3 0.8-2.1 16.9-5.1 18.5-3.5 0.7 0.7-0.8 9.4-3.8 22.7-3.6 15.8-4.5 22-3.4 23.1 3.3 3.4 5.2-1.2 11.6-29.7 3.5-15.7 6.6-29.6 7-30.9 0.5-2.2 0-2.8-2.9-3.2-2.9-0.5-3.7 0-4.3 2.3-0.7 3.3-7 6.8-10.2 5.8-1.2-0.3-2.7-1.8-3-3.1-0.9-2.7-5.7-3.2-7.5-0.7-1.8 2.1-13.9 57.4-12.9 58.9 0.8 1.4 6.4 1.7 8.5 0.3zm36.5-1.7c0.9-2.1 14.4-59.3 14.4-61 0-0.3-1.6-0.5-3.5-0.5-3.5 0-3.6 0.1-6.6 13.7-1.8 7.4-4.9 21.4-7.2 31.1-4 17.6-4 19.3 0.2 19.4 0.9 0 2.1-1.2 2.7-2.7z"/>
			<path id="&lt;Path&gt;" fill-rule="evenodd" class="s0" d="m340.4 374.6c0-0.9 1.9-2.3 4.8-3 2.6-0.7 4.8-1.6 4.8-1.9 0-0.4 2.6-12.3 5.9-26.3 3.2-14.2 6.2-27.5 6.7-29.6l0.8-4h-7.2-7l-3.2 7.1c-3.2 7.7-5.1 9.6-7.1 7.7-0.9-1-0.8-4 0.4-10.2l1.7-8.8 25.2-0.4c18.1-0.3 25.3-0.7 26.1-1.8 0.8-1.5 15.2-4.6 16.9-3.7 0.5 0.3 0.8 1.6 0.8 2.8 0 2-3.8 19.9-5.5 25.6-0.4 1.6 1 1.2 6.3-1.5 9.3-4.8 16.2-4.7 21 0 1.9 2.1 3.4 4.9 3.4 6.6 0 1.7-1.5 10.2-3.6 19-1.9 8.9-3.6 16.5-3.6 17.1 0 0.6 1.5 1.7 3.2 2.3 1.6 0.7 2.8 1.9 2.6 2.8-0.4 1-4.3 1.6-12.8 1.8-11.2 0.2-12.3 0.1-11.9-1.8 0.2-1.1 2-2.4 4.1-3 3.6-1 3.7-1.1 7.3-17.6 2-9.5 3.2-17.8 2.7-19.2-1.2-3.4-9.9-3.8-15.6-0.8-4.1 2.3-4.3 2.8-7.4 16.7-1.8 8-3.6 15.6-4 17.2-0.5 2.1 0 2.9 2.5 3.9 6.4 2.5 2.6 4.2-10 4.6-10.5 0.2-12.3 0-12.3-1.6 0-1.1 1.5-2.2 3.6-2.6 2.1-0.4 4-1.3 4.3-1.9 0.9-1.3 10.1-42 10.1-44.1 0-0.8-0.9-1.3-2-1.2-1.8 0.1-2.2-0.9-2.2-7.1v-7.3h-7.7-7.6l-6.4 27.8c-3.5 15.1-6.7 28.7-7.1 29.9-0.6 1.7 0 2.4 2.6 3 4.7 1.1 5.2 1.6 4.4 3.5-1 2.7-28 2.7-28 0z"/>
			<path id="&lt;Path&gt;" fill-rule="evenodd" class="s0" d="m556.8 314.4c-2.6-2.5-1.7-7.8 1.5-9.9 3.7-2.5 8.6-2.6 9.5 0 1.5 3.7 0.7 6.4-2.4 8.8q-5.4 4.4-8.6 1.1z"/>
			<path id="&lt;Path&gt;" fill-rule="evenodd" class="s0" d="m517.7 231.4c-0.3-0.6-2-6.4-3.8-13.1-1.8-6.7-3.5-13.2-3.8-14.5-0.6-2.2-0.4-2.1 1.9 0.4 2.9 3.3 5.5 11.9 6.7 21.7 0.7 5.8 0.4 7.8-1 5.5z"/>
			<path id="&lt;Path&gt;" fill-rule="evenodd" class="s0" d="m509.9 198.1c-0.8-0.9-1.4-2.5-1.4-3.7 0-1.2-1-3.1-2.2-4.3-3.6-3.7-6.8-9-10.3-17.1-3.5-7.8-9.6-16.7-20-29.2-11.8-14-9.9-16.1 2.2-2.6 12.6 14.3 18.2 23.2 30.9 50.2 3.2 6.9 3.6 9.4 0.8 6.7z"/>
			<path id="&lt;Path&gt;" fill-rule="evenodd" class="s0" d="m203.5 116.4c10.1-10.4 29.8-22.9 35.1-22.1 1.8 0.3-1.8 3.3-12.9 10.7-28.6 19.3-31 20.5-22.2 11.4z"/>
			<path id="&lt;Path&gt;" fill-rule="evenodd" class="s0" d="m453 117.5c-2.5-1.7-4.5-3.7-4.5-4.3 0-0.6 2.1 0.8 4.8 2.8 2.6 2.2 4.8 4.1 4.8 4.4 0 0.6-0.4 0.3-5.1-2.9z"/>
			<path id="&lt;Path&gt;" fill-rule="evenodd" class="s0" d="m446.1 111.7c0-0.4 0.2-0.7 0.6-0.7 0.3 0 0.6 0.3 0.6 0.7 0 0.3-0.3 0.6-0.6 0.6-0.4 0-0.6-0.3-0.6-0.6z"/>
			<path id="&lt;Path&gt;" fill-rule="evenodd" class="s0" d="m430.9 102.3c-5.9-4.3-6.1-4.9-0.8-2.3 4.9 2.4 7.6 5 5.4 5-0.6 0-2.7-1.2-4.6-2.7z"/>
			<path id="&lt;Path&gt;" fill-rule="evenodd" class="s0" d="m416.6 95.4c-2.2-2.2-31.3-12.6-44.5-15.9-7.2-1.8-14.3-3.8-15.6-4.7-4.2-2.7 16.3-0.3 25.9 2.9 10.7 3.7 32.7 14.3 34.8 17 1.7 1.9 1.2 2.5-0.6 0.7z"/>
			<path id="&lt;Path&gt;" fill-rule="evenodd" class="s0" d="m250.5 87.4c2.5-2.6 19.8-9 26.2-9.8 5.1-0.6 5.3-0.5 3.2 1.2-2.4 2-26.4 10.4-29.6 10.4-1.4 0-1.4-0.2 0.2-1.8z"/>
			<path id="&lt;Path&gt;" fill-rule="evenodd" class="s0" d="m285.5 76.3c1-1.6 9.3-3.8 17.1-4.6 3.3-0.4 9.1-1 12.9-1.4 4.8-0.6 6.9-0.3 6.9 0.6 0 0.8-1.6 1.4-3.5 1.4-2 0-7 0.7-11.2 1.7-10.8 2.4-23 3.6-22.2 2.3z"/>
		</g>
	</g>
</svg>